<svg width="22.027832" height="24.048157" viewBox="0 0 22.0278 24.0482" fill="none" xmlns="http://www.w3.org/2000/svg" xmlns:xlink="http://www.w3.org/1999/xlink">
	<desc>
			Created with Pixso.
	</desc>
	<defs/>
	<path id="Vector" d="M21.02 10.01C21.02 17.03 11.01 23.04 11.01 23.04C11.01 23.04 1 17.03 1 10.01C1 7.62 2.05 5.33 3.93 3.64C5.81 1.95 8.35 1 11.01 1C13.66 1 16.21 1.95 18.09 3.64C19.97 5.33 21.02 7.62 21.02 10.01Z" fill="#01CFC9" fill-opacity="1.000000" fill-rule="nonzero"/>
	<path id="Vector" d="M11.01 23.04C11.01 23.04 1 17.03 1 10.01C1 7.62 2.05 5.33 3.93 3.64C5.81 1.95 8.35 1 11.01 1C13.66 1 16.21 1.95 18.09 3.64C19.97 5.33 21.02 7.62 21.02 10.01C21.02 17.03 11.01 23.04 11.01 23.04Z" stroke="#0F2650" stroke-opacity="1.000000" stroke-width="2.000000" stroke-linejoin="round"/>
	<path id="Vector" d="M10.51 12.94C12.44 12.94 14.01 11.7 14.01 10.18C14.01 8.66 12.44 7.43 10.51 7.43C8.57 7.43 7 8.66 7 10.18C7 11.7 8.57 12.94 10.51 12.94Z" fill="#0F2650" fill-opacity="1.000000" fill-rule="nonzero"/>
	<path id="Vector" d="M10.51 12.94C8.57 12.94 7 11.7 7 10.18C7 8.66 8.57 7.43 10.51 7.43C12.44 7.43 14.01 8.66 14.01 10.18C14.01 11.7 12.44 12.94 10.51 12.94Z" stroke="#0F2650" stroke-opacity="1.000000" stroke-width="2.000000" stroke-linejoin="round"/>
</svg>
