<svg width="22.007568" height="18.000000" viewBox="0 0 22.0076 18" fill="none" xmlns="http://www.w3.org/2000/svg" xmlns:xlink="http://www.w3.org/1999/xlink">
	<desc>
			Created with Pixso.
	</desc>
	<defs/>
	<path id="Vector" d="M3 1L19 1C20.1 1 21 1.89 21 3L21 15C21 16.1 20.1 17 19 17L3 17C1.9 17 1 16.1 1 15L1 3C1 1.89 1.9 1 3 1Z" fill="#01CFC9" fill-opacity="1.000000" fill-rule="nonzero"/>
	<path id="Vector" d="M19 1C20.1 1 21 1.89 21 3L21 15C21 16.1 20.1 17 19 17L3 17C1.9 17 1 16.1 1 15L1 3C1 1.89 1.9 1 3 1L19 1Z" stroke="#0F2650" stroke-opacity="1.000000" stroke-width="2.000000" stroke-linejoin="round"/>
	<path id="Vector" d="M21 3L11 10L1 3" stroke="#0F2650" stroke-opacity="1.000000" stroke-width="2.000000" stroke-linejoin="round" stroke-linecap="round"/>
</svg>
