<svg width="50.000000" height="50.000000" viewBox="0 0 50 50" fill="none" xmlns="http://www.w3.org/2000/svg" xmlns:xlink="http://www.w3.org/1999/xlink">
	<desc>
			Created with Pixso.
	</desc>
	<defs/>
	<rect id="Rectangle 102" rx="8.000000" width="50.000000" height="50.000000" fill="#FFFFFF" fill-opacity="1.000000"/>
	<path id="Vector" d="M31 15L28 15C26.67 15 25.4 15.52 24.46 16.46C23.52 17.4 23 18.67 23 20L23 23L20 23L20 27L23 27L23 35L27 35L27 27L30 27L31 23L27 23L27 20C27 19.73 27.1 19.48 27.29 19.29C27.48 19.1 27.73 19 28 19L31 19L31 15Z" fill="#01CFC9" fill-opacity="1.000000" fill-rule="nonzero"/>
	<path id="Vector" d="M28 15C26.67 15 25.4 15.52 24.46 16.46C23.52 17.4 23 18.67 23 20L23 23L20 23L20 27L23 27L23 35L27 35L27 27L30 27L31 23L27 23L27 20C27 19.73 27.1 19.48 27.29 19.29C27.48 19.1 27.73 19 28 19L31 19L31 15L28 15Z" stroke="#01CFC9" stroke-opacity="1.000000" stroke-width="2.000000" stroke-linejoin="round"/>
</svg>
