<svg width="50.000000" height="50.000000" viewBox="0 0 50 50" fill="none" xmlns="http://www.w3.org/2000/svg" xmlns:xlink="http://www.w3.org/1999/xlink">
	<desc>
			Created with Pixso.
	</desc>
	<defs>
		<clipPath id="clip21_668">
			<rect id="instagram" width="24.000000" height="24.000000" transform="translate(16.000000 13.000000)" fill="white" fill-opacity="0"/>
		</clipPath>
	</defs>
	<rect id="Rectangle 103" rx="8.000000" width="50.000000" height="50.000000" fill="#FFFFFF" fill-opacity="1.000000"/>
	<rect id="instagram" width="24.000000" height="24.000000" transform="translate(16.000000 13.000000)" fill="#01CFC9" fill-opacity="0"/>
	<g clip-path="url(#clip21_668)">
		<path id="Vector" d="M33 15L23 15C20.23 15 18 17.23 18 20L18 30C18 32.76 20.23 35 23 35L33 35C35.76 35 38 32.76 38 30L38 20C38 17.23 35.76 15 33 15Z" fill="#01CFC9" fill-opacity="1.000000" fill-rule="nonzero"/>
		<path id="Vector" d="M33 15C35.76 15 38 17.23 38 20L38 30C38 32.76 35.76 35 33 35L23 35C20.23 35 18 32.76 18 30L18 20C18 17.23 20.23 15 23 15L33 15Z" stroke="#01CFC9" stroke-opacity="1.000000" stroke-width="2.000000" stroke-linejoin="round"/>
		<path id="Vector" d="M32 24.36C32.12 25.2 31.98 26.05 31.59 26.79C31.2 27.54 30.59 28.15 29.84 28.52C29.09 28.9 28.23 29.03 27.4 28.9C26.57 28.77 25.8 28.37 25.21 27.78C24.61 27.18 24.22 26.42 24.09 25.59C23.96 24.76 24.09 23.9 24.47 23.15C24.84 22.4 25.45 21.79 26.2 21.4C26.94 21.01 27.79 20.87 28.63 21C29.47 21.12 30.26 21.52 30.87 22.12C31.47 22.73 31.87 23.52 32 24.36Z" fill="#01CFC9" fill-opacity="1.000000" fill-rule="nonzero"/>
		<path id="Vector" d="M31.59 26.79C31.2 27.54 30.59 28.15 29.84 28.52C29.09 28.9 28.23 29.03 27.4 28.9C26.57 28.77 25.8 28.37 25.21 27.78C24.61 27.18 24.22 26.42 24.09 25.59C23.96 24.76 24.09 23.9 24.47 23.15C24.84 22.4 25.45 21.79 26.2 21.4C26.94 21.01 27.79 20.87 28.63 21C29.47 21.12 30.26 21.52 30.87 22.12C31.47 22.73 31.87 23.52 32 24.36C32.12 25.2 31.98 26.05 31.59 26.79Z" stroke="#FFFFFF" stroke-opacity="1.000000" stroke-width="2.000000" stroke-linejoin="round"/>
		<path id="Vector" d="M33.5 19.5L33.5 19.5" stroke="#FFFFFF" stroke-opacity="1.000000" stroke-width="2.000000" stroke-linejoin="round" stroke-linecap="round"/>
	</g>
</svg>
