<svg width="22.027832" height="29.000488" viewBox="0 0 22.0278 29.0005" fill="none" xmlns="http://www.w3.org/2000/svg" xmlns:xlink="http://www.w3.org/1999/xlink">
	<desc>
			Created with Pixso.
	</desc>
	<defs/>
	<path id="Vector" d="M21.02 12.04C21.02 20.63 11.01 28 11.01 28C11.01 28 1 20.63 1 12.04C1 9.11 2.05 6.3 3.93 4.23C5.81 2.16 8.35 1 11.01 1C13.66 1 16.21 2.16 18.09 4.23C19.97 6.3 21.02 9.11 21.02 12.04Z" fill="#01CFC9" fill-opacity="1.000000" fill-rule="nonzero"/>
	<path id="Vector" d="M11.01 28C11.01 28 1 20.63 1 12.04C1 9.11 2.05 6.3 3.93 4.23C5.81 2.16 8.35 1 11.01 1C13.66 1 16.21 2.16 18.09 4.23C19.97 6.3 21.02 9.11 21.02 12.04C21.02 20.63 11.01 28 11.01 28Z" stroke="#0F2650" stroke-opacity="1.000000" stroke-width="2.000000" stroke-linejoin="round"/>
	<path id="Vector" d="M11.01 16C12.67 16 14.01 14.43 14.01 12.5C14.01 10.56 12.67 9 11.01 9C9.35 9 8 10.56 8 12.5C8 14.43 9.35 16 11.01 16Z" fill="#0F2650" fill-opacity="1.000000" fill-rule="nonzero"/>
	<path id="Vector" d="M11.01 16C9.35 16 8 14.43 8 12.5C8 10.56 9.35 9 11.01 9C12.67 9 14.01 10.56 14.01 12.5C14.01 14.43 12.67 16 11.01 16Z" stroke="#0F2650" stroke-opacity="1.000000" stroke-width="2.000000" stroke-linejoin="round"/>
</svg>
