
<svg width="89.000000" height="89.000000" viewBox="0 0 89 89" fill="none" xmlns="http://www.w3.org/2000/svg" xmlns:xlink="http://www.w3.org/1999/xlink">
	<desc>
			Created with Pixso.
	</desc>
	<defs/>
	<rect id="Rectangle 83" rx="12.000000" width="89.000000" height="89.000000" fill="#B7ECEA" fill-opacity="1.000000"/>
	<path id="Vector" d="M65.16 48.13C65.95 42.47 66.37 37.31 66.37 34.2C66.37 24.15 61.89 16 55.09 16C51.84 16 48.59 19.21 45.35 19.21C42.1 19.21 38.85 16 35.6 16C28.8 16 24.32 24.15 24.32 34.2C24.32 37.31 24.74 42.47 25.53 48.13L65.16 48.13Z" fill="#FFFFFF" fill-opacity="1.000000" fill-rule="evenodd"/>
	<path id="Vector" d="M65.16 48.13C65.95 42.47 66.37 37.31 66.37 34.2C66.37 24.15 61.89 16 55.09 16C51.84 16 48.59 19.21 45.35 19.21C42.1 19.21 38.85 16 35.6 16C28.8 16 24.32 24.15 24.32 34.2C24.32 37.31 24.74 42.47 25.53 48.13L65.16 48.13ZM61.65 44.13Q62.37 38.08 62.37 34.2Q62.37 27.6 59.85 23.38Q58.15 20.54 55.95 20.08Q55.53 20 55.09 20Q54.4 20 51.99 21.19Q47.9 23.21 45.35 23.21Q42.79 23.21 38.7 21.19Q36.29 20 35.6 20Q35.16 20 34.74 20.08Q32.54 20.54 30.84 23.38Q28.32 27.6 28.32 34.2Q28.32 38.08 29.04 44.13L61.65 44.13Z" fill="#0F2650" fill-opacity="1.000000" fill-rule="evenodd"/>
	<path id="Vector" d="M36.62 48.13L54.06 48.13L54.06 55.62L50.99 59.91L50.99 75.97L45.34 80.26L39.7 75.97L39.7 59.91L36.62 55.62L36.62 48.13Z" fill="#0F2650" fill-opacity="1.000000" fill-rule="evenodd"/>
	<path id="Vector" d="M37.65 20.28C33.12 20.28 29.45 24.12 29.45 28.85" stroke="#D0CFCE" stroke-opacity="1.000000" stroke-width="6.702580" stroke-linecap="round"/>
	<path id="Vector" d="M39.7 68.48L50.99 71.69L50.99 73.83L39.7 70.62L39.7 68.48Z" fill="#D8D8D8" fill-opacity="1.000000" fill-rule="evenodd"/>
	<path id="Vector" d="M39.7 64.19L50.99 67.41L50.99 69.55L39.7 66.33L39.7 64.19Z" fill="#D8D8D8" fill-opacity="1.000000" fill-rule="evenodd"/>
	<path id="Vector" d="M39.7 59.91L50.99 63.12L50.99 65.26L39.7 62.05L39.7 59.91Z" fill="#D8D8D8" fill-opacity="1.000000" fill-rule="evenodd"/>
</svg>
