<svg width="30.333252" height="30.333252" viewBox="0 0 30.3333 30.3333" fill="none" xmlns="http://www.w3.org/2000/svg" xmlns:xlink="http://www.w3.org/1999/xlink">
	<desc>
			Created with Pixso.
	</desc>
	<defs/>
	<path id="Vector" d="M15.16 29.33C22.99 29.33 29.33 22.99 29.33 15.16C29.33 7.34 22.99 1 15.16 1C7.34 1 1 7.34 1 15.16C1 22.99 7.34 29.33 15.16 29.33Z" fill="#0F2650" fill-opacity="1.000000" fill-rule="nonzero"/>
	<path id="Vector" d="M15.16 29.33C7.34 29.33 1 22.99 1 15.16C1 7.34 7.34 1 15.16 1C22.99 1 29.33 7.34 29.33 15.16C29.33 22.99 22.99 29.33 15.16 29.33Z" stroke="#0F2650" stroke-opacity="1.000000" stroke-width="2.000000" stroke-linejoin="round"/>
	<path id="Vector" d="M15.16 9.5L15.16 20.83" stroke="#01CFC9" stroke-opacity="1.000000" stroke-width="2.000000" stroke-linejoin="round" stroke-linecap="round"/>
	<path id="Vector" d="M9.5 15.16L20.83 15.16" stroke="#01CFC9" stroke-opacity="1.000000" stroke-width="2.000000" stroke-linejoin="round" stroke-linecap="round"/>
</svg>
