<svg width="50.000000" height="50.000000" viewBox="0 0 50 50" fill="none" xmlns="http://www.w3.org/2000/svg" xmlns:xlink="http://www.w3.org/1999/xlink">
	<desc>
			Created with Pixso.
	</desc>
	<defs>
		<linearGradient x1="0.000000" y1="25.000000" x2="50.000000" y2="25.000000" id="paint_linear_21_689_0" gradientUnits="userSpaceOnUse">
			<stop stop-color="#0F2650"/>
			<stop offset="1.000000" stop-color="#0F2650" stop-opacity="0.819608"/>
		</linearGradient>
	</defs>
	<rect id="Rectangle 61" rx="8.000000" width="50.000000" height="50.000000" fill="url(#paint_linear_21_689_0)" fill-opacity="1.000000"/>
	<path id="Vector" d="M39 16C38.04 16.67 36.98 17.19 35.86 17.52C35.25 16.83 34.45 16.34 33.56 16.12C32.67 15.9 31.73 15.95 30.88 16.28C30.02 16.61 29.28 17.19 28.77 17.95C28.25 18.71 27.98 19.61 28 20.52L28 21.52C26.24 21.57 24.5 21.18 22.93 20.39C21.36 19.6 20.01 18.43 19 17C19 17 15 26 24 30C21.94 31.39 19.48 32.09 17 32C26 37 37 32 37 20.5C36.99 20.22 36.97 19.94 36.91 19.66C37.94 18.66 38.66 17.39 39 16Z" fill="#01CFC9" fill-opacity="1.000000" fill-rule="nonzero"/>
	<path id="Vector" d="M35.86 17.52C35.25 16.83 34.45 16.34 33.56 16.12C32.67 15.9 31.73 15.95 30.88 16.28C30.02 16.61 29.28 17.19 28.77 17.95C28.25 18.71 27.98 19.61 28 20.52L28 21.52C26.24 21.57 24.5 21.18 22.93 20.39C21.36 19.6 20.01 18.43 19 17C19 17 15 26 24 30C21.94 31.39 19.48 32.09 17 32C26 37 37 32 37 20.5C36.99 20.22 36.97 19.94 36.91 19.66C37.94 18.66 38.66 17.39 39 16C38.04 16.67 36.98 17.19 35.86 17.52Z" stroke="#01CFC9" stroke-opacity="1.000000" stroke-width="2.000000" stroke-linejoin="round"/>
</svg>
