<svg width="89.000000" height="89.000000" viewBox="0 0 89 89" fill="none" xmlns="http://www.w3.org/2000/svg" xmlns:xlink="http://www.w3.org/1999/xlink">
	<desc>
			Created with Pixso.
	</desc>
	<defs/>
	<rect id="Rectangle 101" rx="12.000000" width="89.000000" height="89.000000" fill="#B7ECEA" fill-opacity="1.000000"/>
	<path id="Vector" d="M73.04 76.24L17.38 76.24C17.22 76.24 17.06 76.2 16.92 76.14C16.77 76.08 16.64 75.98 16.52 75.86C16.41 75.74 16.32 75.6 16.26 75.44C16.2 75.28 16.17 75.11 16.17 74.94L16.17 15.3C16.17 15.12 16.2 14.95 16.26 14.8C16.32 14.64 16.41 14.49 16.52 14.37C16.63 14.25 16.77 14.16 16.92 14.09C17.06 14.03 17.22 13.99 17.38 14L73.04 14C73.2 14 73.36 14.03 73.5 14.09C73.65 14.16 73.78 14.26 73.9 14.38C74.01 14.5 74.1 14.64 74.16 14.8C74.22 14.96 74.25 15.12 74.25 15.3L74.25 74.94C74.25 75.29 74.12 75.61 73.89 75.86C73.67 76.1 73.36 76.24 73.04 76.24ZM18.59 73.64L71.83 73.64L71.83 16.59L18.59 16.59L18.59 73.64Z" fill="#0F2650" fill-opacity="1.000000" fill-rule="nonzero"/>
	<path id="Vector" d="M72.08 26.87L18.34 26.87C18.03 26.85 17.74 26.7 17.54 26.46C17.33 26.22 17.21 25.9 17.21 25.58C17.21 25.25 17.33 24.93 17.54 24.69C17.74 24.45 18.03 24.3 18.34 24.28L72.08 24.28C72.25 24.27 72.41 24.29 72.57 24.35C72.73 24.41 72.87 24.5 72.99 24.62C73.12 24.74 73.21 24.89 73.28 25.06C73.35 25.22 73.38 25.4 73.38 25.58C73.38 25.75 73.35 25.93 73.28 26.09C73.21 26.26 73.12 26.41 72.99 26.53C72.87 26.65 72.73 26.74 72.57 26.8C72.41 26.86 72.25 26.89 72.08 26.87Z" fill="#0F2650" fill-opacity="1.000000" fill-rule="nonzero"/>
	<path id="Vector" d="M39.13 18.98L69.5 18.98L69.5 21.58L39.13 21.58L39.13 18.98Z" fill="#0F2650" fill-opacity="1.000000" fill-rule="nonzero"/>
	<path id="Vector" d="M24.32 33.77L58.76 33.77L58.76 36.36L24.32 36.36L24.32 33.77Z" fill="#0F2650" fill-opacity="1.000000" fill-rule="nonzero"/>
	<path id="Vector" d="M24.32 39.82L58.76 39.82L58.76 42.41L24.32 42.41L24.32 39.82Z" fill="#0F2650" fill-opacity="1.000000" fill-rule="nonzero"/>
	<path id="Vector" d="M24.32 45.87L58.76 45.87L58.76 48.46L24.32 48.46L24.32 45.87Z" fill="#0F2650" fill-opacity="1.000000" fill-rule="nonzero"/>
	<path id="Vector" d="M24.32 51.92L58.76 51.92L58.76 54.51L24.32 54.51L24.32 51.92Z" fill="#0F2650" fill-opacity="1.000000" fill-rule="nonzero"/>
	<path id="Vector" d="M64.89 37.66L67.31 37.66L67.31 54.95L64.89 54.95L64.89 37.66Z" fill="#B7ECEA" fill-opacity="1.000000" fill-rule="nonzero"/>
	<path id="Vector" d="M57.91 69.11L42.18 69.11C42.02 69.11 41.87 69.07 41.72 69.01C41.57 68.94 41.44 68.85 41.33 68.73C41.22 68.61 41.13 68.46 41.07 68.31C41.01 68.15 40.97 67.98 40.97 67.81L40.97 61.33C40.97 61.16 41.01 60.99 41.07 60.83C41.13 60.67 41.22 60.53 41.33 60.41C41.44 60.29 41.58 60.19 41.72 60.13C41.87 60.06 42.03 60.03 42.19 60.03L57.91 60.03C58.07 60.03 58.23 60.06 58.38 60.13C58.53 60.19 58.66 60.29 58.77 60.41C58.89 60.53 58.98 60.68 59.04 60.83C59.1 60.99 59.13 61.16 59.13 61.33L59.13 67.82C59.13 67.99 59.09 68.16 59.03 68.31C58.97 68.47 58.88 68.61 58.77 68.73C58.66 68.85 58.52 68.95 58.38 69.01C58.23 69.07 58.07 69.11 57.91 69.11ZM43.39 66.51L56.7 66.51L56.7 62.62L43.39 62.62L43.39 66.51Z" fill="#0F2650" fill-opacity="1.000000" fill-rule="nonzero"/>
	<path id="Vector" d="M27.78 67.94L25.01 64.96C24.78 64.72 24.65 64.39 24.64 64.04C24.64 63.69 24.77 63.35 25 63.11C25.23 62.86 25.54 62.72 25.86 62.72C26.19 62.71 26.5 62.85 26.73 63.1L27.78 64.25L30.78 61.02C31.01 60.78 31.32 60.64 31.65 60.64C31.97 60.65 32.28 60.79 32.51 61.04C32.73 61.28 32.86 61.62 32.86 61.96C32.86 62.31 32.73 62.64 32.49 62.89L27.78 67.94Z" fill="#0F2650" fill-opacity="1.000000" fill-rule="nonzero"/>
</svg>
