<svg width="22.000000" height="22.000000" viewBox="0 0 22 22" fill="none" xmlns="http://www.w3.org/2000/svg" xmlns:xlink="http://www.w3.org/1999/xlink">
	<desc>
			Created with Pixso.
	</desc>
	<defs/>
	<path id="Vector" d="M11 21C16.52 21 21 16.52 21 11C21 5.47 16.52 1 11 1C5.47 1 1 5.47 1 11C1 16.52 5.47 21 11 21Z" fill="#01CFC9" fill-opacity="1.000000" fill-rule="nonzero"/>
	<path id="Vector" d="M11 21C5.47 21 1 16.52 1 11C1 5.47 5.47 1 11 1C16.52 1 21 5.47 21 11C21 16.52 16.52 21 11 21Z" stroke="#0F2650" stroke-opacity="1.000000" stroke-width="2.000000" stroke-linejoin="round"/>
	<path id="Vector" d="M11 6L11 12L15 14" stroke="#0F2650" stroke-opacity="1.000000" stroke-width="2.000000" stroke-linejoin="round" stroke-linecap="round"/>
</svg>
