<svg width="89.000000" height="89.000000" viewBox="0 0 89 89" fill="none" xmlns="http://www.w3.org/2000/svg" xmlns:xlink="http://www.w3.org/1999/xlink">
	<desc>
			Created with Pixso.
	</desc>
	<defs/>
	<rect id="Rectangle 100" rx="12.000000" width="89.000000" height="89.000000" fill="#B7ECEA" fill-opacity="1.000000"/>
	<path id="Vector" d="M45 65.83C56.5 65.83 65.83 56.5 65.83 45C65.83 33.49 56.5 24.16 45 24.16C33.49 24.16 24.16 33.49 24.16 45C24.16 56.5 33.49 65.83 45 65.83Z" fill="#01CFC9" fill-opacity="1.000000" fill-rule="nonzero"/>
	<path id="Vector" d="M45 65.83C33.49 65.83 24.16 56.5 24.16 45C24.16 33.49 33.49 24.16 45 24.16C56.5 24.16 65.83 33.49 65.83 45C65.83 56.5 56.5 65.83 45 65.83Z" stroke="#0F2650" stroke-opacity="1.000000" stroke-width="2.000000" stroke-linejoin="round"/>
	<path id="Vector" d="M45 34.58L45 47.08L53.33 51.24" stroke="#0F2650" stroke-opacity="1.000000" stroke-width="2.000000" stroke-linejoin="round" stroke-linecap="round"/>
</svg>
