<svg width="32.000000" height="30.000000" viewBox="0 0 32 30" fill="none" xmlns="http://www.w3.org/2000/svg" xmlns:xlink="http://www.w3.org/1999/xlink">
	<desc>
			Created with Pixso.
	</desc>
	<defs>
		<clipPath id="clip11_340">
			<rect id="phone" width="32.000000" height="30.000000" fill="white" fill-opacity="0"/>
		</clipPath>
	</defs>
	<rect id="phone" width="32.000000" height="30.000000" fill="#FFFFFF" fill-opacity="0"/>
	<g clip-path="url(#clip11_340)">
		<path id="Vector" d="M27.37 19.84L27.37 22.83C27.37 23.11 27.31 23.38 27.18 23.64C27.06 23.89 26.87 24.12 26.64 24.3C26.41 24.49 26.14 24.63 25.84 24.72C25.54 24.81 25.23 24.85 24.92 24.82C21.45 24.49 18.13 23.44 15.21 21.76C12.49 20.24 10.19 18.2 8.46 15.79C6.56 13.2 5.37 10.24 5 7.16C4.98 6.89 5.01 6.61 5.11 6.35C5.21 6.09 5.37 5.85 5.58 5.64C5.79 5.44 6.05 5.28 6.34 5.16C6.62 5.05 6.93 5 7.24 5L10.62 5C11.16 4.99 11.69 5.16 12.11 5.48C12.52 5.79 12.79 6.23 12.87 6.71C13.01 7.66 13.27 8.6 13.66 9.5C13.81 9.86 13.84 10.25 13.75 10.62C13.66 10.99 13.45 11.33 13.15 11.6L11.72 12.87C13.32 15.36 15.65 17.42 18.47 18.84L19.9 17.57C20.2 17.31 20.59 17.12 21.01 17.04C21.43 16.96 21.87 16.99 22.27 17.13C23.29 17.46 24.35 17.7 25.43 17.82C25.98 17.89 26.48 18.14 26.84 18.51C27.19 18.88 27.38 19.36 27.37 19.84Z" fill="#01CFC9" fill-opacity="1.000000" fill-rule="nonzero"/>
		<path id="Vector" d="M27.37 22.83C27.37 23.11 27.31 23.38 27.18 23.64C27.06 23.89 26.87 24.12 26.64 24.3C26.41 24.49 26.14 24.63 25.84 24.72C25.54 24.81 25.23 24.85 24.92 24.82C21.45 24.49 18.13 23.44 15.21 21.76C12.49 20.24 10.19 18.2 8.46 15.79C6.56 13.2 5.37 10.24 5 7.16C4.98 6.89 5.01 6.61 5.11 6.35C5.21 6.09 5.37 5.85 5.58 5.64C5.79 5.44 6.05 5.28 6.34 5.16C6.62 5.05 6.93 5 7.24 5L10.62 5C11.16 4.99 11.69 5.16 12.11 5.48C12.52 5.79 12.79 6.23 12.87 6.71C13.01 7.66 13.27 8.6 13.66 9.5C13.81 9.86 13.84 10.25 13.75 10.62C13.66 10.99 13.45 11.33 13.15 11.6L11.72 12.87C13.32 15.36 15.65 17.42 18.47 18.84L19.9 17.57C20.2 17.31 20.59 17.12 21.01 17.04C21.43 16.96 21.87 16.99 22.27 17.13C23.29 17.46 24.35 17.7 25.43 17.82C25.98 17.89 26.48 18.14 26.84 18.51C27.19 18.88 27.38 19.36 27.37 19.84L27.37 22.83Z" stroke="#01CFC9" stroke-opacity="1.000000" stroke-width="2.000000" stroke-linejoin="round"/>
	</g>
</svg>
