<svg width="89.000000" height="89.000000" viewBox="0 0 89 89" fill="none" xmlns="http://www.w3.org/2000/svg" xmlns:xlink="http://www.w3.org/1999/xlink">
	<desc>
			Created with Pixso.
	</desc>
	<defs/>
	<rect id="Rectangle 85" rx="12.000000" width="89.000000" height="89.000000" fill="#B7ECEA" fill-opacity="1.000000"/>
	<path id="Vector" d="M71.12 22.77C69.73 19.5 57.32 13.77 59.45 16.9C62.83 21.88 64.1 31.23 63.05 41.41C62.15 50.16 57 69.38 57 69.38C56.59 71.99 58.07 74.31 59.02 74.15C61.65 73.71 67.8 65.23 67.52 44.96C67.56 43.39 68.12 41.89 69.11 40.72C71.02 38.24 72.22 35.23 72.57 32.05C72.93 28.88 72.42 25.66 71.12 22.77Z" fill="#D0CFCE" fill-opacity="1.000000" fill-rule="nonzero"/>
	<path id="Vector" d="M66.03 18.18C63.98 17.14 61.71 16.7 59.45 16.9C54.13 17.54 52.75 20.14 48 20.64C43.24 20.14 41.86 17.54 36.54 16.9C34.28 16.7 32.01 17.14 29.96 18.18C27.91 19.21 26.16 20.79 24.87 22.77C21.82 27.71 22.49 35.08 26.88 40.72C27.83 41.91 28.39 43.4 28.47 44.96C28.74 52.14 30.02 72.31 36.2 73.67C40.97 74.73 38.45 50.6 48 50.91C57.54 50.6 55.02 74.73 59.79 73.67C65.97 72.31 67.25 52.14 67.52 44.96C67.6 43.4 68.16 41.91 69.11 40.72C73.5 35.08 74.17 27.71 71.12 22.77C69.83 20.79 68.08 19.21 66.03 18.18Z" stroke="#0F2650" stroke-opacity="1.000000" stroke-width="4.000000"/>
</svg>
