<svg width="89.000000" height="89.000000" viewBox="0 0 89 89" fill="none" xmlns="http://www.w3.org/2000/svg" xmlns:xlink="http://www.w3.org/1999/xlink">
	<desc>
			Created with Pixso.
	</desc>
	<defs/>
	<rect id="Rectangle 84" rx="12.000000" width="89.000000" height="89.000000" fill="#B7ECEA" fill-opacity="1.000000"/>
	<path id="Vector" d="M3.72 50.32C3.72 50.32 11.76 46.88 22.83 51.1C29.57 53.67 37.42 61.14 45.28 61.14C53.14 61.14 61 53.67 67.73 51.1C78.8 46.88 86.84 50.32 86.84 50.32L86.84 80.99L3.72 80.99L3.72 50.32Z" fill="#FF5656" fill-opacity="0" fill-rule="evenodd"/>
	<path id="Vector" d="M3.72 50.32C3.72 50.32 11.76 46.88 22.83 51.1C29.57 53.67 37.42 61.14 45.28 61.14C53.14 61.14 61 53.67 67.73 51.1C78.8 46.88 86.84 50.32 86.84 50.32L86.84 80.99L3.72 80.99L3.72 50.32ZM7.72 53.34L7.72 76.99L82.84 76.99L82.84 53.34Q82.03 53.2 81.05 53.1Q80.68 53.07 80.31 53.04Q74.82 52.68 69.16 54.84Q67.06 55.63 62.13 58.64Q51.42 65.14 45.28 65.14Q39.14 65.14 28.44 58.64Q23.5 55.63 21.41 54.84Q15.75 52.68 10.25 53.04Q9.88 53.07 9.52 53.1Q8.54 53.2 7.72 53.34Z" fill="#0F2650" fill-opacity="1.000000" fill-rule="evenodd"/>
	<path id="Vector" d="M60.81 19.16C59.05 18.25 57.09 17.86 55.15 18.04C50.57 18.6 49.37 20.88 45.28 21.32C41.19 20.88 40 18.6 35.42 18.04C33.47 17.86 31.51 18.25 29.75 19.16C27.99 20.06 26.47 21.46 25.37 23.2C22.74 27.54 23.32 34.02 27.09 38.98C27.92 40.03 28.4 41.34 28.47 42.72C28.7 49.02 29.8 66.76 35.13 67.97C39.23 68.89 37.06 47.67 45.28 47.95C53.5 47.67 51.33 68.89 55.44 67.97C60.76 66.76 61.87 49.02 62.09 42.72C62.16 41.34 62.64 40.03 63.47 38.98C67.25 34.02 67.82 27.54 65.2 23.2C64.09 21.46 62.58 20.06 60.81 19.16Z" stroke="#0F2650" stroke-opacity="1.000000" stroke-width="4.000000"/>
</svg>
