<svg width="89.000000" height="89.000000" viewBox="0 0 89 89" fill="none" xmlns="http://www.w3.org/2000/svg" xmlns:xlink="http://www.w3.org/1999/xlink">
	<desc>
			Created with Pixso.
	</desc>
	<defs/>
	<rect id="Rectangle 86" rx="12.000000" width="89.000000" height="89.000000" fill="#B7ECEA" fill-opacity="1.000000"/>
	<path id="Vector" d="M36.45 18C29.33 18 24.63 25.2 24.63 34.08C24.63 42.97 29.33 71 36.45 71C40.6 71 41.08 47.72 46.66 47.7C53.31 47.72 52.71 71 56.87 71C63.99 71 68.69 42.97 68.69 34.08C68.69 25.2 63.99 18 56.87 18C53.46 18 50.06 20.83 46.66 20.83C43.25 20.83 39.85 18 36.45 18Z" fill="#FFFFFF" fill-opacity="1.000000" fill-rule="evenodd"/>
	<path id="Vector" d="M36.45 18C29.33 18 24.63 25.2 24.63 34.08C24.63 42.97 29.33 71 36.45 71C40.6 71 41.08 47.72 46.66 47.7C53.31 47.72 52.71 71 56.87 71C63.99 71 68.69 42.97 68.69 34.08C68.69 25.2 63.99 18 56.87 18C53.46 18 50.06 20.83 46.66 20.83C43.25 20.83 39.85 18 36.45 18ZM31.74 54.89Q28.63 42.64 28.63 34.08Q28.63 28.55 31.13 25.02Q32.59 22.96 34.53 22.3Q35.44 22 36.45 22Q37.35 22 40.01 23.11Q44.16 24.83 46.66 24.83Q49.16 24.83 53.3 23.11Q55.97 22 56.87 22Q57.88 22 58.78 22.3Q60.72 22.96 62.19 25.02Q64.69 28.55 64.69 34.08Q64.69 42.64 61.57 54.89Q59.97 61.18 58.17 64.63Q58.07 64.82 57.98 64.99Q57.58 63.33 57.03 60.61Q55.64 53.66 54.54 50.73Q52.54 45.42 49.04 44.12Q47.92 43.71 46.64 43.7Q45.66 43.7 44.77 44Q41.37 45.11 39.36 50.42Q38.33 53.14 36.83 59.75Q36.01 63.34 35.47 65.23Q35.31 64.95 35.14 64.63Q33.34 61.18 31.74 54.89Z" fill="#0F2650" fill-opacity="1.000000" fill-rule="evenodd"/>
	<path id="Vector" d="M39.74 27C35.82 27 32.64 30.06 32.64 33.85" stroke="#D0CFCE" stroke-opacity="1.000000" stroke-width="4.996469" stroke-linecap="round"/>
	<path id="Vector" d="M46.66 15.22L46.66 7M68.25 23.85L74.27 18.04M77.19 44.7L85.71 44.7M68.25 65.54L74.27 71.36M46.66 74.17L46.66 82.4M25.07 65.54L19.04 71.36M16.12 44.7L7.6 44.7M25.07 23.85L19.04 18.04" stroke="#0F2650" stroke-opacity="1.000000" stroke-width="2.000000" stroke-linejoin="round"/>
</svg>
