<svg width="199.000000" height="22.000000" viewBox="0 0 199 22" fill="none" xmlns="http://www.w3.org/2000/svg" xmlns:xlink="http://www.w3.org/1999/xlink">
	<desc>
			Created with Pixso.
	</desc>
	<defs/>
	<path id="DENTALCARE" d="M119.36 4.74Q118.09 7.2 118.09 10.35Q118.09 13.5 119.36 15.96Q120.06 17.3 121.08 18.32Q121.93 19.16 123 19.78Q125.37 21.14 128.58 21.14Q131.34 21.14 133.52 20.11Q134.89 19.45 135.95 18.46Q136.56 17.88 137.06 17.19Q137.14 17.07 137.21 16.96Q138.45 15.15 138.87 12.78L131.86 12.78Q131.48 13.58 130.87 14.12Q130.69 14.28 130.49 14.41Q130.25 14.57 129.99 14.68Q129.3 15 128.46 15Q127.52 15 126.8 14.6Q126.23 14.29 125.81 13.74Q124.83 12.48 124.83 10.35Q124.83 8.21 125.81 6.95Q126.23 6.4 126.8 6.09Q127.52 5.69 128.46 5.69Q129.3 5.69 129.99 6.01Q130.25 6.12 130.49 6.28Q130.69 6.42 130.87 6.58Q131.48 7.11 131.86 7.91L138.87 7.91Q138.45 5.54 137.21 3.73Q137.14 3.62 137.06 3.5Q136.56 2.81 135.95 2.23Q134.89 1.24 133.52 0.58Q131.34 -0.46 128.58 -0.46Q125.37 -0.46 123 0.91Q121.93 1.53 121.08 2.37Q120.06 3.39 119.36 4.74ZM146.76 21L147.82 17.79L154.89 17.79L155.95 21L162.96 21L155.22 -0.25L147.55 -0.25L139.78 21L146.76 21ZM171.15 13.38L175.15 21L182.46 21L177.85 12.87Q179.72 12.26 180.85 11Q181.06 10.76 181.25 10.5Q181.7 9.87 181.98 9.18Q182.43 8.04 182.43 6.71Q182.43 5.14 181.85 3.82Q181.7 3.48 181.52 3.16Q181.37 2.91 181.21 2.68Q180.31 1.44 178.77 0.67Q176.95 -0.25 174.36 -0.25L164.47 -0.25L164.47 21L171.12 21L171.12 13.38L171.15 13.38ZM191.22 7.67L191.22 5.06L198.72 5.06L198.72 -0.25L184.57 -0.25L184.57 21L198.72 21L198.72 15.68L191.22 15.68L191.22 12.68L197.82 12.68L197.82 7.67L191.22 7.67ZM173.77 8.93L171.12 8.93L171.12 5.34L173.77 5.34Q174.66 5.34 175.15 5.78Q175.17 5.8 175.19 5.82Q175.29 5.91 175.36 6.02Q175.69 6.46 175.69 7.14Q175.69 8.03 175.24 8.47Q175.22 8.48 175.2 8.5Q174.73 8.93 173.77 8.93ZM151.36 6.87L153.27 12.78L149.44 12.78L151.36 6.87Z" fill="#01CFC9" fill-opacity="1.000000" fill-rule="evenodd"/>
	<path id="DENTALCARE" d="M14.18 1.11Q11.68 -0.25 8.34 -0.25L-0.5 -0.25L-0.5 21L8.34 21Q11.68 21 14.18 19.6Q15.72 18.75 16.82 17.51Q17.51 16.72 18.03 15.78Q18.25 15.38 18.44 14.97Q19.38 12.85 19.38 10.32Q19.38 7.55 18.28 5.33Q18.17 5.09 18.03 4.86Q17.5 3.91 16.78 3.12Q15.69 1.92 14.18 1.11ZM28.44 7.67L28.44 5.06L35.94 5.06L35.94 -0.25L21.79 -0.25L21.79 21L35.94 21L35.94 15.68L28.44 15.68L28.44 12.68L35.04 12.68L35.04 7.67L28.44 7.67ZM52.18 21L58.84 21L58.84 -0.25L52.18 -0.25L52.18 10.62L45.12 -0.25L38.47 -0.25L38.47 21L45.12 21L45.12 10.32L52.18 21ZM78.51 5.04L78.51 -0.25L60.64 -0.25L60.64 5.04L66.22 5.04L66.22 21L72.87 21L72.87 5.04L78.51 5.04ZM85.8 21L86.86 17.79L93.93 17.79L94.99 21L102 21L94.26 -0.25L86.59 -0.25L78.82 21L85.8 21ZM116.59 15.96L110.16 15.96L110.16 -0.25L103.51 -0.25L103.51 21L116.59 21L116.59 15.96ZM10.98 14.1Q9.72 15.06 7.74 15.06L6.15 15.06L6.15 5.58L7.74 5.58Q9.72 5.58 10.98 6.53Q11.15 6.66 11.31 6.81Q11.53 7.01 11.71 7.24Q12.64 8.41 12.64 10.32Q12.64 12.22 11.71 13.39Q11.53 13.62 11.31 13.82Q11.15 13.97 10.98 14.1ZM90.39 6.87L92.31 12.78L88.48 12.78L90.39 6.87Z" fill="#0F2650" fill-opacity="1.000000" fill-rule="evenodd"/>
</svg>
